<svg width="512" height="512" fill="none" xmlns="http://www.w3.org/2000/svg"><path d="M0 208.267C0 74.707 70.783 0 208.108 0h98.602C440.175 0 512 75.407 512 208.267v95.466C512 436.593 440.175 512 306.71 512h-98.602C70.783 512 0 437.292 0 303.733v-95.466Zm42 .028v95.41C42 410.036 90.236 470 208.136 470h98.544C418.948 470 470 411.232 470 303.705v-95.41C470 100.768 418.948 42 306.68 42h-98.544C90.236 42 42 101.964 42 208.295ZM222.762 337h66.478c8.672 0 15.702 7.03 15.702 15.703a15.7 15.7 0 0 1-3.176 9.468c-11 14.553-26.218 21.829-45.654 21.829-19.389 0-34.654-7.24-45.795-21.723-5.288-6.873-4.003-16.732 2.87-22.02a15.701 15.701 0 0 1 9.575-3.257Zm-26.545-167.933c8.8-8.774 23.046-8.753 31.82.046 8.774 8.8 8.753 23.046-.046 31.82l-66.193 66c-8.931 8.905-23.436 8.731-32.151-.386l-28.807-30.136c-8.587-8.983-8.266-23.226.717-31.812 8.983-8.587 23.225-8.265 31.812.717l12.928 13.526 49.92-49.775Zm182.625 0c8.8-8.774 23.046-8.753 31.82.046 8.774 8.8 8.753 23.046-.047 31.82l-66.192 66c-8.931 8.905-23.437 8.731-32.152-.386l-28.807-30.136c-8.586-8.983-8.265-23.226.717-31.812 8.983-8.587 23.226-8.265 31.812.717l12.929 13.526 49.92-49.775Z" fill="#0DAFE2"/></svg>